<svg id="brand_lmb_24" data-name="brand/lmb/24" xmlns="http://www.w3.org/2000/svg" width="24" height="24" viewBox="0 0 24 24">
    <g id="Page_1_Copy_15" data-name="Page 1 Copy 15">
        <path id="Fill_1" data-name="Fill 1" d="M24,12A12,12,0,1,1,12,0,12,12,0,0,1,24,12" fill="#292929"/>
        <path id="Stroke_3" data-name="Stroke 3" d="M15.327,0,0,15.327" transform="translate(4.273 4.207)" fill="none" stroke="#dedede" stroke-miterlimit="10" stroke-width="1.8"/>
        <path id="Fill_5" data-name="Fill 5" d="M2.662,4.066a.277.277,0,0,1,.3.3.277.277,0,0,1-.3.3H0V.3A.261.261,0,0,1,.3,0,.262.262,0,0,1,.6.3V4.066Z" transform="translate(5.978 5.956)" fill="#fffbfa"/>
        <path id="Fill_7" data-name="Fill 7" d="M2.213,0h.75V4.366a.262.262,0,0,1-.3.3.262.262,0,0,1-.3-.3V.828H2.351l-.57.845v.1c0,.186-.071.36-.3.36s-.3-.174-.3-.36v-.1L.612.828H.6V4.366a.262.262,0,0,1-.3.3.262.262,0,0,1-.3-.3V0H.75l.732,1.056Z" transform="translate(10.526 5.956)" fill="#fffbfa"/>
        <path id="Fill_9" data-name="Fill 9" d="M1.679,4.666H0V0H1.679c.839,0,1.282.479,1.282,1.385a1.156,1.156,0,0,1-.4.948,1.294,1.294,0,0,1,.4,1.085A1.186,1.186,0,0,1,1.679,4.666ZM.6,2.633V4.066H1.679c.454,0,.684-.218.684-.648,0-.471-.116-.785-.684-.785ZM.6.6V2.033H1.679c.454,0,.684-.218.684-.648C2.363.914,2.247.6,1.679.6Z" transform="translate(15.353 5.956)" fill="#fffbfa"/>
        <path id="Fill_11" data-name="Fill 11" d="M2.657,4.666A.322.322,0,0,1,2.393,4.5L.738,2.135H.6V4.366a.262.262,0,0,1-.3.3.261.261,0,0,1-.3-.3V0H2.015a.9.9,0,0,1,.948.87v.414a.869.869,0,0,1-.948.85H1.463l1.35,1.931a.6.6,0,0,1,.149.318A.288.288,0,0,1,2.657,4.666ZM.6.6v.935H1.931c.129,0,.432,0,.432-.251V.87c0-.182-.14-.27-.427-.27Z" transform="translate(5.977 12.556)" fill="#fffbfa"/>
        <path id="Fill_13" data-name="Fill 13" d="M2.363,3.646a1.008,1.008,0,0,1-.114.576.915.915,0,0,1-.875.444H1.026a.944.944,0,0,1-.84-.348A.889.889,0,0,1,0,3.712V2.843a.262.262,0,0,1,.3-.3.262.262,0,0,1,.3.3v.779c0,.348.072.444.426.444h.33c.251,0,.407-.036.407-.324V.3a.262.262,0,0,1,.3-.3.262.262,0,0,1,.3.3Z" transform="translate(10.626 12.556)" fill="#fffbfa"/>
    </g>
</svg>